<?xml version="1.0" encoding="UTF-8"?>
<svg id="Layer_3" xmlns="http://www.w3.org/2000/svg" version="1.1" viewBox="0 0 4000 3750.6">
  <defs>
    <style>
      .st0 {
        fill: #003640;
      }

      .st1 {
        fill: #00a8a8;
      }

      .st2 {
        fill: #c7ede4;
      }
    </style>
  </defs>
  <path class="st0" d="M1867.68,677.56c86.08-30.76,172.75-35.23,258.13-.48,90.16-141.46,177.17-277.67,323.74-367.7,72.25-44.37,400.24-202.32,399.98-37.36-.12,88.38-163.87,91.19-239.49,125.07-146.64,65.7-284.62,207.86-341.54,358.56,115.62,105.13,180.22,244,166.68,402.57,288.1,222.31,573.16,453.68,832.76,709.08,276.9,272.43,839.33,846,663.36,1270.69-56.3,135.87-303.17,208.15-436.59,242.89-270.15,70.36-681.24,144.56-882.24-93.56-139.49,111.7-288.2,212.47-466.81,249.11-270.97,55.58-468.1-43.46-683.95-190.53-17.06-11.61-39.71-41.73-52.96-45.23-19.99-5.33-99.47,64.62-132.82,81.95-257.46,133.64-843.82,28.03-1087.91-122-313.56-192.74-73.26-664.71,90.66-887.4,338.67-460.06,836.43-850.42,1272.93-1214.52,19.63-166.22,59.82-302.17,191.06-413.37-85.84-145.25-196.15-277.93-353.73-348-63.81-28.36-227.75-45.09-238.55-101.46-36.98-193.13,297.85-44.63,375.07,1.34,148.13,88.19,265.79,227.2,342.22,380.3l.02.05ZM1723.1,1149.28c6.77,11.59,142.42,85.84,167.3,93.47,110.1,33.72,201.81,17.85,299.65-40.12,110.12-65.27,115.78-127.45,54.74-241.48-106.88-199.7-344.47-210.31-473.72-19.77-29.04,42.81-73.98,163.39-47.99,207.91h.02ZM1913.13,1408.13c-100.21-17.4-178.49-82.72-265.21-129.25-325.99,262.36-658.42,533.59-946.93,837.17-208.87,219.76-558.47,595.05-508.54,921.71,11.78,77.1,92.75,108.2,157.18,134.02,191.16,76.65,609.95,158.45,803.29,99.97,239.17-72.35,503.43-582.33,589.05-806.36,128.26-335.62,193.6-696.86,171.17-1057.29v.02ZM3767.06,3113.31c63.69-65.61,41.56-205.68,22.44-287.22-55.98-238.57-289.52-496.37-454.81-673.63-299.29-320.98-645.56-594.83-983.09-873.55-87.35,44.75-163.25,104.48-261.68,126.89-35.97,534.36,135.1,1164.7,457.83,1594.29,183.02,243.64,282.58,309.65,598.43,287.05,116.86-8.37,545.49-96.08,620.94-173.83h-.05ZM1999.78,2146.8c-92.44,375.31-250.64,737.97-497.14,1037.33,118.42,109.18,326.33,225.47,490.95,225.59,170.26.12,384.31-108.7,502.66-227.25-186.67-235.62-324.89-503.11-424.26-786.56l-72.21-249.11h0Z"/>
  <path class="st2" d="M1913.13,1408.13c22.46,360.41-42.88,721.68-171.17,1057.29-85.62,224.03-349.87,734.01-589.05,806.36-193.34,58.48-612.13-23.32-803.29-99.97-64.43-25.84-145.4-56.92-157.18-134.02-49.96-326.67,299.67-701.93,508.54-921.71,288.51-303.58,620.91-574.79,946.93-837.17,86.72,46.53,165,111.82,265.21,129.25v-.02Z"/>
  <path class="st2" d="M3767.06,3113.31c-75.45,77.75-504.07,165.46-620.94,173.83-315.84,22.6-415.41-43.41-598.43-287.05-322.73-429.59-493.78-1059.96-457.83-1594.29,98.43-22.41,174.34-82.14,261.68-126.89,337.54,278.72,683.81,552.57,983.09,873.55,165.29,177.26,398.82,435.06,454.81,673.63,19.13,81.54,41.25,221.61-22.44,287.22h.05Z"/>
  <path class="st1" d="M1999.78,2146.8l72.21,249.11c99.37,283.45,237.59,550.94,424.26,786.56-118.35,118.54-332.4,227.37-502.66,227.25-164.62-.12-372.52-116.38-490.95-225.59,246.49-299.36,404.7-662.04,497.14-1037.33h0Z"/>
  <path class="st1" d="M1723.1,1149.28c-25.99-44.51,18.93-165.1,47.99-207.91,129.25-190.53,366.84-179.93,473.72,19.77,61.02,114.03,55.38,176.21-54.74,241.48-97.83,58-189.55,73.84-299.65,40.12-24.88-7.63-160.54-81.85-167.3-93.47h-.02Z"/>
</svg>
